<mxfile host="app.diagrams.net" modified="2023-04-27T15:45:53.833Z" agent="Mozilla/5.0 (X11; Linux x86_64; rv:109.0) Gecko/20100101 Firefox/112.0" version="21.2.3" etag="4dMKKF5_-Q3VU40OQKqD" type="github">
  <diagram name="Page-1" id="2Gj7XA58R0d5xzu8eENe">
    <mxGraphModel>
      <root>
        <mxCell id="0" />
        <mxCell id="1" parent="0" />
      </root>
    </mxGraphModel>
  </diagram>
</mxfile>
